<svg width="83" height="20" viewBox="0 0 83 20" fill="none" xmlns="http://www.w3.org/2000/svg">
<g clip-path="url(#clip0_47_2)">
<path d="M1.69995 18V0.720001H5.39595V18H1.69995ZM3.42795 11.304V8.472H13.34V11.304H3.42795ZM3.42795 3.552V0.720001H13.892V3.552H3.42795Z" fill="#014195"/>
<path d="M21.5046 18.24C20.1446 18.24 18.9606 17.976 17.9526 17.448C16.9446 16.904 16.1606 16.152 15.6006 15.192C15.0566 14.232 14.7846 13.128 14.7846 11.88C14.7846 10.616 15.0566 9.512 15.6006 8.568C16.1606 7.608 16.9366 6.864 17.9286 6.336C18.9206 5.792 20.0726 5.52 21.3846 5.52C22.6486 5.52 23.7446 5.776 24.6726 6.288C25.6006 6.8 26.3206 7.512 26.8326 8.424C27.3446 9.336 27.6006 10.408 27.6006 11.64C27.6006 11.896 27.5926 12.136 27.5766 12.36C27.5606 12.568 27.5366 12.768 27.5046 12.96H16.8966V10.584H24.6006L23.9766 11.016C23.9766 10.024 23.7366 9.296 23.2566 8.832C22.7926 8.352 22.1526 8.112 21.3366 8.112C20.3926 8.112 19.6566 8.432 19.1286 9.072C18.6166 9.712 18.3606 10.672 18.3606 11.952C18.3606 13.2 18.6166 14.128 19.1286 14.736C19.6566 15.344 20.4406 15.648 21.4806 15.648C22.0566 15.648 22.5526 15.552 22.9686 15.36C23.3846 15.168 23.6966 14.856 23.9046 14.424H27.2886C26.8886 15.608 26.2006 16.544 25.2246 17.232C24.2646 17.904 23.0246 18.24 21.5046 18.24Z" fill="#014195"/>
<path d="M35.3043 18.24C34.0243 18.24 32.8963 17.968 31.9203 17.424C30.9443 16.88 30.1763 16.128 29.6163 15.168C29.0723 14.208 28.8003 13.112 28.8003 11.88C28.8003 10.648 29.0723 9.552 29.6163 8.592C30.1763 7.632 30.9443 6.88 31.9203 6.336C32.8963 5.792 34.0243 5.52 35.3043 5.52C36.3763 5.52 37.3363 5.72 38.1843 6.12C39.0483 6.504 39.7523 7.04 40.2963 7.728C40.8563 8.416 41.2163 9.224 41.3763 10.152H37.8963C37.7203 9.56 37.4003 9.112 36.9363 8.808C36.4883 8.504 35.9603 8.352 35.3523 8.352C34.7763 8.352 34.2723 8.496 33.8403 8.784C33.4243 9.072 33.1043 9.48 32.8803 10.008C32.6563 10.536 32.5443 11.16 32.5443 11.88C32.5443 12.6 32.6563 13.224 32.8803 13.752C33.1043 14.28 33.4243 14.688 33.8403 14.976C34.2723 15.264 34.7763 15.408 35.3523 15.408C35.9603 15.408 36.4883 15.256 36.9363 14.952C37.4003 14.648 37.7203 14.2 37.8963 13.608H41.3763C41.2163 14.536 40.8563 15.344 40.2963 16.032C39.7523 16.72 39.0483 17.264 38.1843 17.664C37.3363 18.048 36.3763 18.24 35.3043 18.24Z" fill="#014195"/>
<path d="M42.9968 18V0.720001H46.6928V18H42.9968ZM44.7248 18V15.168H54.9968V18H44.7248Z" fill="#014195"/>
<path d="M76.428 18.24C75.148 18.24 74.02 17.968 73.044 17.424C72.068 16.88 71.3 16.128 70.74 15.168C70.196 14.208 69.924 13.112 69.924 11.88C69.924 10.648 70.196 9.552 70.74 8.592C71.3 7.632 72.068 6.88 73.044 6.336C74.02 5.792 75.148 5.52 76.428 5.52C77.5 5.52 78.46 5.72 79.308 6.12C80.172 6.504 80.876 7.04 81.42 7.728C81.98 8.416 82.34 9.224 82.5 10.152H79.02C78.844 9.56 78.524 9.112 78.06 8.808C77.612 8.504 77.084 8.352 76.476 8.352C75.9 8.352 75.396 8.496 74.964 8.784C74.548 9.072 74.228 9.48 74.004 10.008C73.78 10.536 73.668 11.16 73.668 11.88C73.668 12.6 73.78 13.224 74.004 13.752C74.228 14.28 74.548 14.688 74.964 14.976C75.396 15.264 75.9 15.408 76.476 15.408C77.084 15.408 77.612 15.256 78.06 14.952C78.524 14.648 78.844 14.2 79.02 13.608H82.5C82.34 14.536 81.98 15.344 81.42 16.032C80.876 16.72 80.172 17.264 79.308 17.664C78.46 18.048 77.5 18.24 76.428 18.24Z" fill="#014195"/>
<path d="M62.5001 16.45C63.7779 15.2944 64.7307 14.2778 65.3584 13.4C65.9862 12.5222 66.3001 11.6333 66.3001 10.7333C66.3001 9.60033 65.9332 8.67267 65.1994 7.95033C64.4658 7.22789 63.5658 6.86667 62.4994 6.86667C61.4332 6.86667 60.5334 7.22789 59.8001 7.95033C59.0668 8.67267 58.7001 9.60033 58.7001 10.7333C58.7001 11.6333 59.014 12.5194 59.6418 13.3917C60.2695 14.2639 61.2223 15.2833 62.5001 16.45ZM62.4961 18.6833C62.2988 18.6833 62.1024 18.65 61.9069 18.5833C61.7115 18.5167 61.537 18.4167 61.3834 18.2833C60.5945 17.5833 59.9001 16.9111 59.3001 16.2667C58.7001 15.6222 58.2001 14.9917 57.8001 14.375C57.4001 13.7583 57.1001 13.15 56.9001 12.55C56.7001 11.95 56.6001 11.3444 56.6001 10.7333C56.6001 8.91422 57.1932 7.465 58.3793 6.38567C59.5655 5.30633 60.9391 4.76667 62.5001 4.76667C64.0611 4.76667 65.4347 5.30633 66.6209 6.38567C67.807 7.465 68.4001 8.91422 68.4001 10.7333C68.4001 11.3444 68.3001 11.95 68.1001 12.55C67.9001 13.15 67.6001 13.7583 67.2001 14.375C66.8001 14.9917 66.3001 15.6222 65.7001 16.2667C65.1001 16.9111 64.4057 17.5833 63.6168 18.2833C63.4617 18.4167 63.2854 18.5167 63.0881 18.5833C62.8908 18.65 62.6934 18.6833 62.4961 18.6833ZM62.5001 12.1667C62.9223 12.1667 63.2779 12.0222 63.5668 11.7333C63.8557 11.4444 64.0001 11.0889 64.0001 10.6667C64.0001 10.2444 63.8557 9.88889 63.5668 9.6C63.2779 9.31111 62.9223 9.16667 62.5001 9.16667C62.0779 9.16667 61.7223 9.31111 61.4334 9.6C61.1445 9.88889 61.0001 10.2444 61.0001 10.6667C61.0001 11.0889 61.1445 11.4444 61.4334 11.7333C61.7223 12.0222 62.0779 12.1667 62.5001 12.1667Z" fill="#014195"/>
</g>
<defs>
<clipPath id="clip0_47_2">
<rect width="82" height="20" fill="white" transform="translate(0.5)"/>
</clipPath>
</defs>
</svg>
